<?xml version="1.0" encoding="UTF-8"?>
<svg id="a" data-name="Layer 1" xmlns="http://www.w3.org/2000/svg" viewBox="0 0 798.84 800">
  <defs>
    <style>
      .b {
        fill: #d4d4d4;
        strokeWidth: 0px;
      }
    </style>
  </defs>
  <path className="b" d="M692.12,673.37c-.17.17-.17,0,0,0-6.58,7.09-13.34,13.51-20.6,20.6-10.97,10.47-22.12,21.44-32.59,33.77-17.05,18.24-37.15,26.85-63.49,26.85-2.53,0-5.23,0-7.77-.17-50.15-3.21-96.75-22.79-131.7-39.51-95.57-46.26-179.48-111.94-249.22-195.19-57.58-69.4-96.07-133.56-121.57-202.45-15.7-42.04-21.44-74.8-18.91-105.7,1.69-19.75,9.29-36.13,23.3-50.15l57.58-57.58c8.27-7.77,17.05-11.99,25.66-11.99,10.64,0,19.25,6.42,24.65,11.82.17.17.34.34.51.51,10.3,9.62,20.09,19.59,30.39,30.22,5.23,5.4,10.64,10.81,16.04,16.38l46.09,46.09c17.9,17.9,17.9,34.44,0,52.34-4.9,4.9-9.62,9.79-14.52,14.52-14.18,14.52-27.69,28.03-42.38,41.2-.34.34-.68.51-.84.84-14.52,14.52-11.82,28.7-8.78,38.33.17.51.34,1.01.51,1.52,11.99,29.04,28.87,56.39,54.54,88.98l.17.17c46.6,57.41,95.74,102.15,149.93,136.43,6.92,4.39,14.01,7.94,20.77,11.31,6.08,3.04,11.82,5.91,16.72,8.95.68.34,1.35.84,2.03,1.18,5.74,2.87,11.14,4.22,16.72,4.22,14.01,0,22.79-8.78,25.66-11.65l57.75-57.75c5.74-5.74,14.86-12.66,25.5-12.66s19.08,6.58,24.31,12.33q.17.17.34.34l93.03,93.03c17.39,17.22,17.39,34.95.17,52.85ZM631.67,495.57c-16.38-17.05-36.13-26.17-57.07-26.17s-40.69,8.95-57.75,26l-53.36,53.19c-4.39-2.36-8.78-4.56-13-6.75-6.08-3.04-11.82-5.91-16.72-8.95-49.98-31.74-95.4-73.11-138.96-126.63-21.11-26.68-35.29-49.13-45.59-71.93,13.85-12.66,26.68-25.83,39.17-38.5,4.73-4.73,9.46-9.62,14.18-14.35,35.46-35.46,35.46-81.38,0-116.84l-46.09-46.09c-5.23-5.23-10.64-10.64-15.7-16.04-10.13-10.47-20.77-21.27-31.74-31.41-16.38-16.21-35.96-24.82-56.56-24.82s-40.52,8.61-57.41,24.82q-.17.17-.34.34l-57.41,57.91C15.72,150.96,3.4,177.3.69,207.86c-4.05,49.3,10.47,95.23,21.61,125.28,27.35,73.79,68.21,142.17,129.17,215.45,73.95,88.31,162.94,158.04,264.58,207.17,38.83,18.4,90.67,40.19,148.58,43.9,3.55.17,7.26.34,10.64.34,39,0,71.76-14.01,97.42-41.87.17-.34.51-.51.68-.84,8.78-10.64,18.91-20.26,29.55-30.56,7.26-6.92,14.69-14.18,21.95-21.78,16.72-17.39,25.5-37.65,25.5-58.42s-8.95-41.03-26-57.91l-92.7-93.03Z"/>
  <path className="b" d="M431.76,190.3c44.24,7.43,84.42,28.37,116.5,60.45s52.85,72.27,60.45,116.5c1.86,11.14,11.48,18.91,22.46,18.91,1.35,0,2.53-.17,3.88-.34,12.49-2.03,20.77-13.85,18.74-26.34-9.12-53.52-34.44-102.32-73.11-140.99-38.67-38.67-87.46-63.99-140.99-73.11-12.49-2.03-24.14,6.25-26.34,18.57-2.2,12.33,5.91,24.31,18.4,26.34Z"/>
  <path className="b" d="M798.49,352.9c-15.03-88.14-56.56-168.34-120.39-232.16C614.28,56.91,534.08,15.37,445.94.35c-12.33-2.2-23.98,6.25-26.17,18.57-2.03,12.49,6.25,24.14,18.74,26.34,78.68,13.34,150.44,50.65,207.51,107.55,57.07,57.07,94.22,128.83,107.55,207.51,1.86,11.14,11.48,18.91,22.46,18.91,1.35,0,2.53-.17,3.88-.34,12.33-1.86,20.77-13.68,18.57-26Z"/>
</svg>