<?xml version="1.0" encoding="UTF-8"?>
<svg id="a" data-name="Layer 1" xmlns="http://www.w3.org/2000/svg" viewBox="0 0 444.01 512">
  <defs>
    <style>
      .b {
        strokeWidth: 0px;
      }
    </style>
  </defs>
  <path className="b" d="m209.47,0C218.13,0,226.8,0,235.47,0c1.93.48,3.86,1.01,5.8,1.45,30.81,6.9,52.98,24.72,66.77,53.03,7.49,15.37,9.39,31.78,8.83,48.66-.25,7.4-.03,7.41,7.52,7.42,20.5,0,41-.01,61.5,0,13.37.01,18.9,5.39,19.91,18.85.6,7.96,1.56,15.9,2.39,23.84,2.52,24,5.07,48,7.6,72,2.49,23.67,4.94,47.34,7.43,71.01,2.52,24,5.05,48,7.58,72,2.49,23.67,5,47.33,7.48,71,1.87,17.88,3.63,35.77,5.57,53.64.96,8.86-2.29,15.25-10.38,19.09H10.47c-8.84-4.2-11.26-11.46-10.26-20.67,2.83-25.96,5.47-51.94,8.22-77.92,3.19-30.1,6.47-60.2,9.63-90.31,3.16-30.11,6.17-60.23,9.34-90.34,3.5-33.25,7.45-66.46,10.5-99.75,1.34-14.64,4.04-23.44,24.64-22.62,19.12.76,38.3.17,57.46.16q7.12,0,7.14-7.34c0-3.16-.04-6.33.02-9.49.49-25.44,9.44-47.4,27.18-65.71C169.51,12.35,188.19,3.62,209.47,0Zm12.3,480.77c60.49,0,120.99,0,181.48,0,6.76,0,7.45-.56,6.8-7.02-2.01-20.04-4.19-40.06-6.31-60.08-2.52-23.83-5.07-47.66-7.57-71.5-2.48-23.67-4.89-47.35-7.37-71.01-2.88-27.48-5.8-54.95-8.69-82.42-1.43-13.57-2.87-27.14-4.2-40.73-.42-4.25-2.28-5.97-6.76-5.91-15.49.23-31,.18-46.49.03-4.23-.04-6.03,1.31-5.9,5.76.24,8.49.11,17,.05,25.5-.06,10.14-6.36,17.19-15.42,17.37-9.22.18-16.07-7.02-16.19-17.22-.11-8.66-.14-17.33,0-26,.07-3.82-1.34-5.39-5.24-5.38-38.66.07-77.32.07-115.98,0-3.93,0-5.28,1.6-5.21,5.41.15,8.83.13,17.66,0,26.5-.13,9.66-6.76,16.65-15.62,16.71-9.09.06-15.84-7-15.98-16.89-.11-8.5-.26-17.01.05-25.49.18-4.94-1.78-6.33-6.45-6.26-14.5.2-29,.07-43.49.07-8.57,0-8.62.14-9.45,8.88-1.07,11.43-2.25,22.86-3.45,34.28-2.51,24-5.08,47.99-7.6,71.99-2.49,23.67-4.93,47.34-7.42,71.01-2.49,23.67-5.04,47.33-7.54,70.99-2.57,24.33-5.03,48.67-7.7,72.99-.85,7.72-.48,8.44,7.16,8.44,60.16,0,120.32,0,180.48,0Zm-.14-370.22c19.33,0,38.66-.07,57.99.06,4.04.03,5.85-1.32,5.6-5.5-.23-3.82-.03-7.66-.06-11.49-.21-26.87-17.74-50.86-43.37-59.36-25.42-8.43-53.43.32-69.84,21.58-11.13,14.42-13.87,30.92-13.26,48.56.17,4.91,1.76,6.29,6.46,6.24,18.83-.2,37.66-.08,56.49-.08Z"/>
</svg>